HIERARCHY
ROOT Hips
{
	OFFSET -0.001795 -0.223333 0.028219
	CHANNELS 6 Xposition Yposition Zposition Zrotation Yrotation Xrotation 
	JOINT LeftUpLeg
	{
		OFFSET 0.069520 -0.091406 -0.006815
		CHANNELS 3 Zrotation Yrotation Xrotation
		JOINT LeftLeg
		{
			OFFSET 0.034277 -0.375199 -0.004496
			CHANNELS 3 Zrotation Yrotation Xrotation
			JOINT LeftFoot
			{
				OFFSET -0.013596 -0.397961 -0.043693
				CHANNELS 3 Zrotation Yrotation Xrotation
				JOINT LeftToe
				{
					OFFSET 0.026358 -0.055791 0.119288
					CHANNELS 3 Zrotation Yrotation Xrotation
					End Site
					{
						OFFSET 0.000000 0.000000 0.000000
					}
				}
			}
		}
	}
	JOINT RightUpLeg
	{
		OFFSET -0.067670 -0.090522 -0.004320
		CHANNELS 3 Zrotation Yrotation Xrotation
		JOINT RightLeg
		{
			OFFSET -0.038290 -0.382569 -0.008850
			CHANNELS 3 Zrotation Yrotation Xrotation
			JOINT RightFoot
			{
				OFFSET 0.015774 -0.398415 -0.042312
				CHANNELS 3 Zrotation Yrotation Xrotation
				JOINT RightToe
				{
					OFFSET -0.025372 -0.048144 0.123348
					CHANNELS 3 Zrotation Yrotation Xrotation
					End Site
					{
						OFFSET 0.000000 0.000000 0.000000
					}
				}
			}
		}
	}
	JOINT Spine
	{
		OFFSET -0.002533 0.108963 -0.026696
		CHANNELS 3 Zrotation Yrotation Xrotation
		JOINT Spine1
		{
			OFFSET 0.005487 0.135180 0.001092
			CHANNELS 3 Zrotation Yrotation Xrotation
			JOINT Spine2
			{
				OFFSET 0.001457 0.052922 0.025425
				CHANNELS 3 Zrotation Yrotation Xrotation
				JOINT Neck
				{
					OFFSET -0.002778 0.213870 -0.042857
					CHANNELS 3 Zrotation Yrotation Xrotation
					JOINT Head
					{
						OFFSET 0.005152 0.064970 0.051349
						CHANNELS 3 Zrotation Yrotation Xrotation
						End Site
						{
							OFFSET 0.000000 0.000000 0.000000
						}
					}
				}
				JOINT LeftShoulder
				{
					OFFSET 0.078845 0.121749 -0.034090
					CHANNELS 3 Zrotation Yrotation Xrotation
					JOINT LeftArm
					{
						OFFSET 0.090977 0.030469 -0.008868
						CHANNELS 3 Zrotation Yrotation Xrotation
						JOINT LeftForeArm
						{
							OFFSET 0.259612 -0.012772 -0.027456
							CHANNELS 3 Zrotation Yrotation Xrotation
							JOINT LeftHand
							{
								OFFSET 0.249234 0.008986 -0.001171
								CHANNELS 3 Zrotation Yrotation Xrotation
								End Site
								{
									OFFSET 0.000000 0.000000 0.000000
								}
							}
						}
					}
				}
				JOINT RightShoulder
				{
					OFFSET -0.081759 0.118833 -0.038615
					CHANNELS 3 Zrotation Yrotation Xrotation
					JOINT RightArm
					{
						OFFSET -0.096012 0.032551 -0.009143
						CHANNELS 3 Zrotation Yrotation Xrotation
						JOINT RightForeArm
						{
							OFFSET -0.253742 -0.013329 -0.021401
							CHANNELS 3 Zrotation Yrotation Xrotation
							JOINT RightHand
							{
								OFFSET -0.255298 0.007772 -0.005559
								CHANNELS 3 Zrotation Yrotation Xrotation
								End Site
								{
									OFFSET 0.000000 0.000000 0.000000
								}
							}
						}
					}
				}
			}
		}
	}
}
MOTION
Frames: 8
Frame Time: 0.050000
-0.810530 0.896866 1.380803 -6.091217 38.219491 3.291292 16.829577 -3.957679 -34.930114 -2.109501 -5.418526 37.046257 -5.032511 -6.058680 5.676364 0.000000 0.000000 0.000000 -2.745194 -2.232773 -34.351321 15.326109 -10.673811 28.820407 -14.139199 -20.192802 62.284070 0.000000 0.000000 0.000000 -21.706410 -4.456917 65.886961 4.911762 0.443202 -28.509893 22.427023 34.364199 37.323251 1.502785 7.962539 -29.202333 0.000000 0.000000 0.000000 -22.175277 -15.523470 -9.255238 -44.439106 -11.972346 1.231087 -13.894806 -46.274068 1.913633 0.000000 0.000000 0.000000 -11.883900 37.461976 10.210964 29.194998 62.714300 21.062157 -23.235708 -1.673680 0.378340 0.000000 0.000000 0.000000 
-0.808263 0.893453 1.373506 -5.714563 37.835897 2.536301 17.166597 -3.680626 -33.762872 -1.631936 -5.584851 37.007169 -7.054017 -13.301983 3.363464 0.000000 0.000000 0.000000 -2.727473 -2.088222 -33.840891 13.902920 -10.174033 29.811178 -13.455482 -19.593554 60.088900 0.000000 0.000000 0.000000 -21.079265 -4.682472 65.985756 5.550091 0.332107 -28.498514 21.420160 34.220484 36.496813 2.379841 7.557308 -29.428367 0.000000 0.000000 0.000000 -22.078391 -15.867647 -8.672030 -43.785138 -11.738852 1.129954 -14.919510 -46.948490 2.434350 0.000000 0.000000 0.000000 -10.048240 37.413015 11.210061 30.671141 60.857231 20.403757 -22.935539 0.400029 0.022798 0.000000 0.000000 0.000000 
-0.804982 0.889296 1.364614 -5.848791 37.062088 1.803132 17.795270 -3.360597 -32.696091 -3.064027 -4.776978 36.372543 -6.042315 -13.540811 1.140692 0.000000 0.000000 0.000000 -2.484889 -1.821894 -33.453870 12.758461 -9.602185 30.373856 -12.173973 -18.498696 56.896916 0.000000 0.000000 0.000000 -19.770953 -4.922944 64.751483 5.727840 0.263062 -27.865085 20.335509 33.323637 35.777230 1.362189 7.934430 -29.464767 0.000000 0.000000 0.000000 -23.530227 -16.311729 -8.853226 -43.197361 -11.498774 1.370563 -15.046546 -45.916894 2.737331 0.000000 0.000000 0.000000 -8.604221 36.991303 11.755208 34.304895 58.417073 20.743851 -23.117600 4.460048 -0.707836 0.000000 0.000000 0.000000 
-0.801070 0.887022 1.353529 -5.295688 36.566077 1.399149 17.264547 -3.249966 -31.981171 -4.010475 -4.326966 36.065624 -5.471840 -13.612724 -0.084113 0.000000 0.000000 0.000000 -3.054698 -1.856469 -32.764858 12.178405 -9.062068 29.927781 -13.011842 -18.998326 55.814428 0.000000 0.000000 0.000000 -18.951672 -5.143671 64.491652 6.166343 0.175018 -27.720505 18.629098 32.015465 34.259596 0.315501 8.240125 -31.310428 0.000000 0.000000 0.000000 -25.085755 -16.563394 -8.645261 -41.917747 -10.064068 1.114703 -17.380374 -46.232060 4.164415 0.000000 0.000000 0.000000 -5.988803 35.793273 12.629866 37.387361 55.699754 20.159894 -22.168878 9.665561 -1.575483 0.000000 0.000000 0.000000 
-0.796594 0.884372 1.340192 -5.333998 35.510854 0.597822 17.376942 -3.007828 -31.174558 -5.260498 -3.718571 35.830961 -4.675838 -13.293250 -1.506275 0.000000 0.000000 0.000000 -2.756496 -1.560253 -32.412354 10.904758 -8.191580 29.882803 -13.588629 -19.390997 54.699958 0.000000 0.000000 0.000000 -18.132009 -5.067319 63.383193 6.657210 -0.015180 -27.054949 17.274562 30.424680 33.344662 -0.278224 8.279337 -33.027062 0.000000 0.000000 0.000000 -25.455678 -16.401651 -8.087542 -41.815870 -9.413381 0.785746 -17.946486 -45.486587 4.594592 0.000000 0.000000 0.000000 -3.502559 34.708019 13.400443 39.713225 52.616551 18.916227 -21.564976 14.157950 -2.238283 0.000000 0.000000 0.000000 
-0.791251 0.882722 1.324685 -5.161741 34.208067 0.201571 17.543252 -2.769943 -30.558131 -6.988664 -2.855565 35.266789 -3.997682 -12.559542 -2.426065 0.000000 0.000000 0.000000 -3.045379 -1.497873 -32.365571 10.232503 -7.516327 29.547135 -13.517323 -19.394950 53.838448 0.000000 0.000000 0.000000 -17.302842 -4.910119 62.403735 6.764224 -0.095170 -26.711183 15.505061 28.360554 32.086796 -1.363920 8.414756 -35.304967 0.000000 0.000000 0.000000 -25.787787 -16.162751 -7.229351 -40.978583 -9.929403 0.743180 -17.703143 -44.206998 4.783669 0.000000 0.000000 0.000000 -0.234309 32.937925 14.266046 40.070870 49.353931 16.335665 -20.093359 19.058135 -2.723182 0.000000 0.000000 0.000000 
-0.784014 0.880764 1.307577 -5.072372 32.724118 -0.629967 17.162882 -2.516699 -29.609144 -8.040731 -2.296803 34.934357 -3.218021 -11.845630 -3.624276 0.000000 0.000000 0.000000 -3.058196 -1.207791 -31.620023 9.102647 -6.491824 28.646767 -13.808303 -19.638360 52.582038 0.000000 0.000000 0.000000 -16.486658 -4.712173 61.490072 6.561573 -0.147497 -25.982050 13.734147 26.268287 30.908041 -1.613324 8.161601 -36.277567 0.000000 0.000000 0.000000 -25.850417 -16.182145 -6.101518 -40.562693 -10.963663 0.821982 -15.601573 -43.150403 4.193879 0.000000 0.000000 0.000000 2.179712 31.835770 14.843956 39.556410 46.695376 13.961553 -18.427684 20.929755 -2.656290 0.000000 0.000000 0.000000 
-0.773370 0.881296 1.290265 -4.956038 30.292877 -1.099218 16.923846 -2.147669 -28.356348 -9.402015 -1.439563 34.002434 -2.440485 -10.357582 -4.304255 0.000000 0.000000 0.000000 -3.348087 -0.970696 -31.305719 8.416690 -5.598787 27.732522 -12.695291 -19.010808 51.986655 0.000000 0.000000 0.000000 -15.731199 -4.016506 59.712466 6.983685 -0.357342 -25.157822 12.200181 24.464871 30.429469 -1.880195 7.925603 -38.892880 0.000000 0.000000 0.000000 -25.854840 -16.209762 -5.117082 -40.308957 -12.336832 0.981023 -12.873764 -42.055498 3.356835 0.000000 0.000000 0.000000 4.519586 30.961717 15.464554 37.456501 43.731046 11.011024 -16.743315 22.160831 -2.446815 0.000000 0.000000 0.000000 
